<svg width="1312" height="310" viewBox="0 0 1312 310" fill="none" xmlns="http://www.w3.org/2000/svg">
<g filter="url(#filter0_f_249_2)">
<path d="M605 -33C605 -82.7056 645.294 -123 695 -123C744.706 -123 785 -82.7056 785 -33V-19C785 30.7056 744.706 71 695 71C645.294 71 605 30.7056 605 -19V-33Z" fill="url(#paint0_linear_249_2)"/>
</g>
<g filter="url(#filter1_f_249_2)">
<path d="M605 -33C605 -82.7056 645.294 -123 695 -123C744.706 -123 785 -82.7056 785 -33V-19C785 30.7056 744.706 71 695 71C645.294 71 605 30.7056 605 -19V-33Z" fill="url(#paint1_linear_249_2)"/>
</g>
<g filter="url(#filter2_f_249_2)">
<path d="M-90 360C-90 310.294 -49.7056 270 0 270C49.7056 270 90 310.294 90 360V374C90 423.706 49.7056 464 0 464C-49.7056 464 -90 423.706 -90 374V360Z" fill="url(#paint2_linear_249_2)"/>
</g>
<g filter="url(#filter3_f_249_2)">
<path d="M-90 360C-90 310.294 -49.7056 270 0 270C49.7056 270 90 310.294 90 360V374C90 423.706 49.7056 464 0 464C-49.7056 464 -90 423.706 -90 374V360Z" fill="url(#paint3_linear_249_2)"/>
</g>
<g filter="url(#filter4_f_249_2)">
<path d="M-90 360C-90 310.294 -49.7056 270 0 270C49.7056 270 90 310.294 90 360V374C90 423.706 49.7056 464 0 464C-49.7056 464 -90 423.706 -90 374V360Z" fill="url(#paint4_linear_249_2)"/>
</g>
<g filter="url(#filter5_f_249_2)">
<path d="M1206 333C1206 283.294 1246.29 243 1296 243C1345.71 243 1386 283.294 1386 333V347C1386 396.706 1345.71 437 1296 437C1246.29 437 1206 396.706 1206 347V333Z" fill="url(#paint5_linear_249_2)"/>
</g>
<g filter="url(#filter6_f_249_2)">
<path d="M1206 333C1206 283.294 1246.29 243 1296 243C1345.71 243 1386 283.294 1386 333V347C1386 396.706 1345.71 437 1296 437C1246.29 437 1206 396.706 1206 347V333Z" fill="url(#paint6_linear_249_2)"/>
</g>
<g filter="url(#filter7_f_249_2)">
<path d="M1192 14C1192 -35.7056 1232.29 -76 1282 -76C1331.71 -76 1372 -35.7056 1372 14V28C1372 77.7056 1331.71 118 1282 118C1232.29 118 1192 77.7056 1192 28V14Z" fill="url(#paint7_linear_249_2)"/>
</g>
<g filter="url(#filter8_f_249_2)">
<path d="M1192 14C1192 -35.7056 1232.29 -76 1282 -76C1331.71 -76 1372 -35.7056 1372 14V28C1372 77.7056 1331.71 118 1282 118C1232.29 118 1192 77.7056 1192 28V14Z" fill="url(#paint8_linear_249_2)"/>
</g>
<g filter="url(#filter9_f_249_2)">
<path d="M731 283C731 233.294 771.294 193 821 193C870.706 193 911 233.294 911 283V297C911 346.706 870.706 387 821 387C771.294 387 731 346.706 731 297V283Z" fill="url(#paint9_linear_249_2)"/>
</g>
<defs>
<filter id="filter0_f_249_2" x="355" y="-373" width="680" height="694" filterUnits="userSpaceOnUse" color-interpolation-filters="sRGB">
<feFlood flood-opacity="0" result="BackgroundImageFix"/>
<feBlend mode="normal" in="SourceGraphic" in2="BackgroundImageFix" result="shape"/>
<feGaussianBlur stdDeviation="125" result="effect1_foregroundBlur_249_2"/>
</filter>
<filter id="filter1_f_249_2" x="355" y="-373" width="680" height="694" filterUnits="userSpaceOnUse" color-interpolation-filters="sRGB">
<feFlood flood-opacity="0" result="BackgroundImageFix"/>
<feBlend mode="normal" in="SourceGraphic" in2="BackgroundImageFix" result="shape"/>
<feGaussianBlur stdDeviation="125" result="effect1_foregroundBlur_249_2"/>
</filter>
<filter id="filter2_f_249_2" x="-340" y="20" width="680" height="694" filterUnits="userSpaceOnUse" color-interpolation-filters="sRGB">
<feFlood flood-opacity="0" result="BackgroundImageFix"/>
<feBlend mode="normal" in="SourceGraphic" in2="BackgroundImageFix" result="shape"/>
<feGaussianBlur stdDeviation="125" result="effect1_foregroundBlur_249_2"/>
</filter>
<filter id="filter3_f_249_2" x="-340" y="20" width="680" height="694" filterUnits="userSpaceOnUse" color-interpolation-filters="sRGB">
<feFlood flood-opacity="0" result="BackgroundImageFix"/>
<feBlend mode="normal" in="SourceGraphic" in2="BackgroundImageFix" result="shape"/>
<feGaussianBlur stdDeviation="125" result="effect1_foregroundBlur_249_2"/>
</filter>
<filter id="filter4_f_249_2" x="-340" y="20" width="680" height="694" filterUnits="userSpaceOnUse" color-interpolation-filters="sRGB">
<feFlood flood-opacity="0" result="BackgroundImageFix"/>
<feBlend mode="normal" in="SourceGraphic" in2="BackgroundImageFix" result="shape"/>
<feGaussianBlur stdDeviation="125" result="effect1_foregroundBlur_249_2"/>
</filter>
<filter id="filter5_f_249_2" x="956" y="-7" width="680" height="694" filterUnits="userSpaceOnUse" color-interpolation-filters="sRGB">
<feFlood flood-opacity="0" result="BackgroundImageFix"/>
<feBlend mode="normal" in="SourceGraphic" in2="BackgroundImageFix" result="shape"/>
<feGaussianBlur stdDeviation="125" result="effect1_foregroundBlur_249_2"/>
</filter>
<filter id="filter6_f_249_2" x="956" y="-7" width="680" height="694" filterUnits="userSpaceOnUse" color-interpolation-filters="sRGB">
<feFlood flood-opacity="0" result="BackgroundImageFix"/>
<feBlend mode="normal" in="SourceGraphic" in2="BackgroundImageFix" result="shape"/>
<feGaussianBlur stdDeviation="125" result="effect1_foregroundBlur_249_2"/>
</filter>
<filter id="filter7_f_249_2" x="942" y="-326" width="1886" height="937" filterUnits="userSpaceOnUse" color-interpolation-filters="sRGB">
<feFlood flood-opacity="0" result="BackgroundImageFix"/>
<feBlend mode="normal" in="SourceGraphic" in2="BackgroundImageFix" result="shape"/>
<feGaussianBlur stdDeviation="125" result="effect1_foregroundBlur_249_2"/>
</filter>
<filter id="filter8_f_249_2" x="942" y="-326" width="1886" height="937" filterUnits="userSpaceOnUse" color-interpolation-filters="sRGB">
<feFlood flood-opacity="0" result="BackgroundImageFix"/>
<feBlend mode="normal" in="SourceGraphic" in2="BackgroundImageFix" result="shape"/>
<feGaussianBlur stdDeviation="125" result="effect1_foregroundBlur_249_2"/>
</filter>
<filter id="filter9_f_249_2" x="481" y="-57" width="680" height="694" filterUnits="userSpaceOnUse" color-interpolation-filters="sRGB">
<feFlood flood-opacity="0" result="BackgroundImageFix"/>
<feBlend mode="normal" in="SourceGraphic" in2="BackgroundImageFix" result="shape"/>
<feGaussianBlur stdDeviation="125" result="effect1_foregroundBlur_249_2"/>
</filter>
<linearGradient id="paint0_linear_249_2" x1="605" y1="-26" x2="785" y2="-26" gradientUnits="userSpaceOnUse">
<stop stop-color="#E830CE"/>
<stop offset="0.5" stop-color="#2323FF" stop-opacity="0.4"/>
<stop offset="1" stop-color="#2EF8A0"/>
</linearGradient>
<linearGradient id="paint1_linear_249_2" x1="605" y1="-26" x2="785" y2="-26" gradientUnits="userSpaceOnUse">
<stop stop-color="#E830CE"/>
<stop offset="0.5" stop-color="#2323FF" stop-opacity="0.4"/>
<stop offset="1" stop-color="#2EF8A0"/>
</linearGradient>
<linearGradient id="paint2_linear_249_2" x1="-90" y1="367" x2="90" y2="367" gradientUnits="userSpaceOnUse">
<stop stop-color="#E830CE"/>
<stop offset="0.5" stop-color="#2323FF" stop-opacity="0.4"/>
<stop offset="1" stop-color="#2EF8A0"/>
</linearGradient>
<linearGradient id="paint3_linear_249_2" x1="-90" y1="367" x2="90" y2="367" gradientUnits="userSpaceOnUse">
<stop stop-color="#E830CE"/>
<stop offset="0.5" stop-color="#2323FF" stop-opacity="0.4"/>
<stop offset="1" stop-color="#2EF8A0"/>
</linearGradient>
<linearGradient id="paint4_linear_249_2" x1="-90" y1="367" x2="90" y2="367" gradientUnits="userSpaceOnUse">
<stop stop-color="#E830CE"/>
<stop offset="0.5" stop-color="#2323FF" stop-opacity="0.4"/>
<stop offset="1" stop-color="#2EF8A0"/>
</linearGradient>
<linearGradient id="paint5_linear_249_2" x1="1206" y1="340" x2="1386" y2="340" gradientUnits="userSpaceOnUse">
<stop stop-color="#E830CE"/>
<stop offset="0.5" stop-color="#2323FF" stop-opacity="0.4"/>
<stop offset="1" stop-color="#2EF8A0"/>
</linearGradient>
<linearGradient id="paint6_linear_249_2" x1="1206" y1="340" x2="1386" y2="340" gradientUnits="userSpaceOnUse">
<stop stop-color="#E830CE"/>
<stop offset="0.5" stop-color="#2323FF" stop-opacity="0.4"/>
<stop offset="1" stop-color="#2EF8A0"/>
</linearGradient>
<linearGradient id="paint7_linear_249_2" x1="1192" y1="21" x2="1372" y2="21" gradientUnits="userSpaceOnUse">
<stop stop-color="#E830CE"/>
<stop offset="0.5" stop-color="#2323FF" stop-opacity="0.4"/>
<stop offset="1" stop-color="#2EF8A0"/>
</linearGradient>
<linearGradient id="paint8_linear_249_2" x1="1192" y1="21" x2="1372" y2="21" gradientUnits="userSpaceOnUse">
<stop stop-color="#E830CE"/>
<stop offset="0.5" stop-color="#2323FF" stop-opacity="0.4"/>
<stop offset="1" stop-color="#2EF8A0"/>
</linearGradient>
<linearGradient id="paint9_linear_249_2" x1="731" y1="290" x2="911" y2="290" gradientUnits="userSpaceOnUse">
<stop stop-color="#E830CE"/>
<stop offset="0.5" stop-color="#2323FF" stop-opacity="0.4"/>
<stop offset="1" stop-color="#2EF8A0"/>
</linearGradient>
</defs>
</svg>
