<?xml version="1.0" encoding="UTF-8"?><svg id="Capa_1" xmlns="http://www.w3.org/2000/svg" viewBox="0 0 300 150"><defs><style>.cls-1{fill:#fff;}</style></defs><path class="cls-1" d="M139.28,39.76h15.08v2.29h-6.29v15.68h-2.6v-15.68h-6.19v-2.29Z"/><path class="cls-1" d="M171.52,39.79h2.58v17.94h-2.58v-7.81h-10.15v7.81h-2.58v-17.94h2.58v7.76h10.15v-7.76Z"/><path class="cls-1" d="M180.08,39.79h10.24v2.29h-7.65v5.47h7.39v2.3h-7.39v5.57h7.9v2.29h-10.48v-17.92Z"/><path class="cls-1" d="M141.12,66.4h9.63v2.29h-7.04v5.01h7.04v2.29h-7.04v8.36h-2.58v-17.94Z"/><path class="cls-1" d="M159.95,66.3h1.82l8.1,18.05h-2.65l-2.41-5.32h-7.7l-2.26,5.32h-2.66l7.75-18.05ZM163.75,76.74l-2.91-6.5-2.7,6.5h5.61Z"/><path class="cls-1" d="M188.32,80.18v2.83c-1.9,1.03-4.08,1.54-6.57,1.54-2.02,0-3.73-.4-5.13-1.21-1.4-.8-2.52-1.91-3.33-3.33s-1.23-2.94-1.23-4.59c0-2.61.94-4.81,2.81-6.59s4.19-2.67,6.93-2.67c1.9,0,4,.49,6.32,1.48v2.76c-2.11-1.2-4.17-1.8-6.19-1.8s-3.78.65-5.15,1.95c-1.37,1.3-2.05,2.92-2.05,4.87s.67,3.59,2.02,4.85c1.34,1.27,3.06,1.9,5.16,1.9s4.33-.67,6.41-2Z"/><path class="cls-1" d="M193.49,66.4h10.24v2.29h-7.65v5.47h7.39v2.3h-7.39v5.57h7.9v2.29h-10.48v-17.92Z"/><path class="cls-1" d="M213.18,76.83l-1.96-1.19c-1.23-.75-2.11-1.48-2.63-2.21-.52-.72-.78-1.56-.78-2.5,0-1.41.49-2.56,1.48-3.44.99-.88,2.27-1.32,3.84-1.32s2.89.42,4.15,1.26v2.92c-1.3-1.24-2.7-1.87-4.2-1.87-.85,0-1.54.19-2.08.58-.54.39-.81.88-.81,1.49,0,.54.2,1.04.6,1.51.4.47,1.04.96,1.93,1.48l1.97,1.16c2.2,1.31,3.3,2.97,3.3,4.99,0,1.44-.48,2.61-1.45,3.51-.97.9-2.23,1.35-3.78,1.35-1.78,0-3.41-.54-4.87-1.63v-3.26c1.4,1.76,3.01,2.64,4.85,2.64.81,0,1.48-.22,2.02-.67s.81-1.01.81-1.68c0-1.09-.79-2.13-2.38-3.11Z"/><path class="cls-1" d="M148.93,91.99h1.82l8.1,18.05h-2.65l-2.41-5.32h-7.7l-2.26,5.32h-2.66l7.76-18.05ZM152.73,102.43l-2.91-6.5-2.7,6.5h5.61Z"/><path class="cls-1" d="M177.31,105.87v2.83c-1.9,1.03-4.08,1.54-6.57,1.54-2.02,0-3.73-.4-5.13-1.21-1.4-.8-2.52-1.91-3.33-3.33s-1.23-2.94-1.23-4.59c0-2.61.94-4.81,2.81-6.59s4.19-2.67,6.93-2.67c1.9,0,4,.49,6.32,1.48v2.76c-2.11-1.2-4.17-1.8-6.19-1.8s-3.78.65-5.15,1.95c-1.37,1.3-2.05,2.92-2.05,4.87s.67,3.59,2.02,4.85c1.34,1.27,3.06,1.9,5.16,1.9s4.33-.67,6.41-2Z"/><path class="cls-1" d="M188.9,91.99h1.82l8.1,18.05h-2.65l-2.41-5.32h-7.7l-2.26,5.32h-2.66l7.76-18.05ZM192.69,102.43l-2.91-6.5-2.7,6.5h5.61Z"/><path class="cls-1" d="M202.8,110.01v-17.92h6.09c2.46,0,4.4.37,5.83,1.1,1.43.73,2.57,1.81,3.41,3.23.84,1.42,1.27,2.97,1.27,4.65,0,1.2-.23,2.35-.7,3.44-.47,1.1-1.13,2.06-1.99,2.89-.88.86-1.9,1.5-3.06,1.94-.68.27-1.3.44-1.87.53-.57.09-1.65.13-3.26.13h-5.71ZM208.61,94.38h-3.23v13.35h3.31c1.29,0,2.3-.09,3.01-.26.72-.18,1.31-.4,1.79-.67.48-.27.92-.6,1.31-1,1.27-1.28,1.91-2.91,1.91-4.87s-.66-3.5-1.96-4.71c-.48-.45-1.04-.83-1.66-1.12-.63-.29-1.22-.48-1.78-.58-.56-.09-1.46-.14-2.7-.14Z"/><path class="cls-1" d="M224.61,92.09h10.24v2.29h-7.65v5.47h7.39v2.3h-7.39v5.57h7.9v2.29h-10.48v-17.92Z"/><path class="cls-1" d="M254.19,92.09h2.42v17.94h-2.6v-13.96l-5.55,6.94h-.48l-5.62-6.94v13.96h-2.58v-17.94h2.45l6,7.37,5.96-7.37Z"/><path class="cls-1" d="M273.34,92.09h3.14l-6.67,8.45v9.49h-2.65v-9.49l-6.67-8.45h3.12l4.83,6.19,4.9-6.19Z"/><path class="cls-1" d="M67.12,42.97v11.01h-32.71l-10.88-11.01h43.59ZM34.4,67.57h32.71v11.09h-32.71v30.04h-10.88v-41.13h10.88Z"/><path class="cls-1" d="M81.02,97.69l-5.56,11.01h-12.1l32.71-65.73,21.84,43.87h-12.27l-9.57-19.31-9.65,19.31-5.4,10.85ZM128.78,108.7h-12.19l-5.4-10.93h12.1l5.48,10.93Z"/></svg>